<?xml version="1.0" encoding="utf-8"?><!-- Uploaded to: SVG Repo, www.svgrepo.com, Generator: SVG Repo Mixer Tools -->
<svg width="800px" height="800px" viewBox="0 0 24 24" fill="none" xmlns="http://www.w3.org/2000/svg">
<path fill-rule="evenodd" clip-rule="evenodd" d="M9.94513 2.25H14.0549C15.4225 2.24998 16.5248 2.24996 17.3918 2.36652C18.2919 2.48754 19.0497 2.74643 19.6517 3.34835C20.2536 3.95027 20.5125 4.70814 20.6335 5.60825C20.75 6.47522 20.75 7.57754 20.75 8.94513V15.8924C20.75 17.179 20.7501 18.2296 20.6366 19.0061C20.5224 19.7871 20.2572 20.5614 19.4836 20.9374C18.7099 21.3135 17.9372 21.0436 17.2525 20.6508C16.5719 20.2604 15.7458 19.6113 14.7342 18.8164L14.0079 18.2457C13.4003 17.7683 12.9961 17.4523 12.6603 17.2481C12.3419 17.0543 12.1574 17.0078 12 17.0078C11.8426 17.0078 11.6581 17.0543 11.3397 17.2481C11.0039 17.4523 10.5997 17.7683 9.99208 18.2458L9.26589 18.8163C8.25424 19.6112 7.42814 20.2604 6.74748 20.6508C6.06284 21.0436 5.29011 21.3135 4.51644 20.9374C3.74277 20.5614 3.47757 19.7871 3.36342 19.0061C3.24994 18.2296 3.24997 17.179 3.25 15.8924L3.25 8.94513C3.24998 7.57754 3.24996 6.47522 3.36652 5.60825C3.48754 4.70814 3.74644 3.95027 4.34835 3.34835C4.95027 2.74643 5.70814 2.48754 6.60825 2.36652C7.47522 2.24996 8.57754 2.24998 9.94513 2.25ZM6.80812 3.85315C6.07435 3.9518 5.68577 4.13225 5.40901 4.40901C5.13225 4.68577 4.9518 5.07435 4.85315 5.80812C4.75159 6.56347 4.75 7.56458 4.75 9V15.8276C4.75 17.1948 4.75196 18.1344 4.84766 18.7891C4.94458 19.4524 5.10153 19.554 5.17215 19.5884C5.24277 19.6227 5.41967 19.6833 6.00106 19.3497C6.57504 19.0205 7.31508 18.4415 8.3901 17.5968L9.10023 17.0389C9.66367 16.5961 10.1384 16.2231 10.56 15.9666C11.0077 15.6943 11.4657 15.5078 12 15.5078C12.5343 15.5078 12.9923 15.6943 13.44 15.9666C13.8617 16.2231 14.3364 16.5961 14.8998 17.0389L15.6099 17.5968C16.6849 18.4415 17.425 19.0205 17.9989 19.3497C18.5803 19.6833 18.7572 19.6227 18.8279 19.5884C18.8985 19.554 19.0554 19.4524 19.1523 18.7891C19.248 18.1344 19.25 17.1948 19.25 15.8276V9C19.25 7.56458 19.2484 6.56347 19.1469 5.80812C19.0482 5.07435 18.8678 4.68577 18.591 4.40901C18.3142 4.13225 17.9257 3.9518 17.1919 3.85315C16.4365 3.75159 15.4354 3.75 14 3.75H10C8.56459 3.75 7.56347 3.75159 6.80812 3.85315Z" fill="#000000"/>
</svg>