<?xml version="1.0" encoding="iso-8859-1"?>
<!-- Uploaded to: SVG Repo, www.svgrepo.com, Generator: SVG Repo Mixer Tools -->
<svg fill="#000000" height="800px" width="800px" version="1.1" id="Layer_1" xmlns="http://www.w3.org/2000/svg" xmlns:xlink="http://www.w3.org/1999/xlink" 
	 viewBox="0 0 359.967 359.967" xml:space="preserve">
<path id="XMLID_106_" d="M269.967,136.038V89.996c0-22.002-15.426-41.832-43.436-55.836c-24.705-12.352-57.217-19.155-91.547-19.155
	c-34.334,0-66.847,6.803-91.551,19.155C15.425,48.164,0,67.994,0,89.996v59.992v59.99v59.992c0,22.003,15.425,41.832,43.434,55.837
	c24.704,12.352,57.217,19.154,91.551,19.154c26.155,0,51.089-3.902,72.629-11.302c14.236,7.224,30.327,11.302,47.354,11.302
	c57.897,0,105-47.103,105-105C359.967,187.157,320.784,143.339,269.967,136.038z M30,198.013c4.091,2.765,8.567,5.378,13.434,7.811
	c24.704,12.352,57.218,19.155,91.551,19.155c5.414,0,10.796-0.179,16.128-0.516c-0.751,5.059-1.146,10.234-1.146,15.499
	c0,4.899,0.345,9.72,0.998,14.442c-5.271,0.376-10.609,0.566-15.98,0.566C74.897,254.971,30,231.217,30,209.979V198.013z
	 M160.833,193.483c-8.422,0.991-17.084,1.495-25.849,1.495C74.897,194.979,30,171.226,30,149.988v-11.966
	c4.091,2.765,8.567,5.378,13.434,7.81c24.704,12.353,57.218,19.155,91.551,19.155c18.472,0,36.403-1.986,52.89-5.73
	C176.64,168.613,167.387,180.264,160.833,193.483z M134.984,45.005c60.086,0,104.982,23.753,104.982,44.991
	c0,21.238-44.896,44.992-104.982,44.992C74.897,134.988,30,111.234,30,89.996C30,68.758,74.897,45.005,134.984,45.005z M30,269.971
	v-11.965c4.091,2.765,8.567,5.377,13.434,7.81c24.704,12.352,57.217,19.155,91.551,19.155c8.28,0,16.502-0.407,24.573-1.194
	c4.576,9.925,10.653,19.021,17.943,26.99c-13.367,2.737-27.84,4.195-42.517,4.195C74.897,314.962,30,291.208,30,269.971z
	 M254.967,314.962c-41.355,0-75-33.645-75-75c0-41.238,33.457-74.802,74.652-74.991c0.117,0.003,0.23,0.018,0.348,0.018
	s0.23-0.015,0.348-0.018c41.195,0.189,74.652,33.753,74.652,74.991C329.967,281.317,296.322,314.962,254.967,314.962z"/>
</svg>